<svg width="638" height="123" viewBox="0 0 638 123" fill="none" xmlns="http://www.w3.org/2000/svg">
<path d="M90.25 97H72.375V33C72.375 31.75 72.125 30.5833 71.625 29.5C71.1667 28.4167 70.5208 27.4792 69.6875 26.6875C68.8958 25.8542 67.9583 25.2083 66.875 24.75C65.7917 24.2917 64.625 24.0625 63.375 24.0625C62.125 24.0625 60.9583 24.2917 59.875 24.75C58.7917 25.2083 57.8333 25.8542 57 26.6875C56.2083 27.4792 55.5833 28.4167 55.125 29.5C54.6667 30.5833 54.4375 31.75 54.4375 33V97H36.5V33C36.5 31.75 36.2708 30.5833 35.8125 29.5C35.3542 28.4167 34.7083 27.4792 33.875 26.6875C33.0833 25.8542 32.1458 25.2083 31.0625 24.75C29.9792 24.2917 28.8125 24.0625 27.5625 24.0625C26.3125 24.0625 25.1458 24.2917 24.0625 24.75C22.9792 25.2083 22.0208 25.8542 21.1875 26.6875C20.3958 27.4792 19.7708 28.4167 19.3125 29.5C18.8542 30.5833 18.625 31.75 18.625 33V97H0.6875V33C0.6875 29.2917 1.375 25.8125 2.75 22.5625C4.16667 19.2708 6.08333 16.4167 8.5 14C10.9583 11.5417 13.8125 9.625 17.0625 8.25C20.3542 6.83333 23.8542 6.125 27.5625 6.125C30.8958 6.125 34.1042 6.72917 37.1875 7.9375C40.2708 9.10417 43.0417 10.8125 45.5 13.0625C47.9583 10.8125 50.7083 9.10417 53.75 7.9375C56.8333 6.72917 60.0417 6.125 63.375 6.125C67.0833 6.125 70.5625 6.83333 73.8125 8.25C77.1042 9.625 79.9583 11.5417 82.375 14C84.8333 16.4167 86.75 19.2708 88.125 22.5625C89.5417 25.8125 90.25 29.2917 90.25 33V97ZM124.625 11.875C124.625 13.4583 124.312 14.9375 123.688 16.3125C123.104 17.6875 122.292 18.8958 121.25 19.9375C120.208 20.9375 118.979 21.75 117.562 22.375C116.188 22.9583 114.708 23.25 113.125 23.25C111.542 23.25 110.042 22.9583 108.625 22.375C107.25 21.75 106.042 20.9375 105 19.9375C104 18.8958 103.188 17.6875 102.562 16.3125C101.979 14.9375 101.688 13.4583 101.688 11.875C101.688 10.3333 101.979 8.875 102.562 7.5C103.188 6.08333 104 4.875 105 3.875C106.042 2.83333 107.25 2.02083 108.625 1.4375C110.042 0.8125 111.542 0.5 113.125 0.5C114.708 0.5 116.188 0.8125 117.562 1.4375C118.979 2.02083 120.208 2.83333 121.25 3.875C122.292 4.875 123.104 6.08333 123.688 7.5C124.312 8.875 124.625 10.3333 124.625 11.875ZM121.688 97H104.5V30.0625H121.688V97ZM151.812 97H134.75V30.0625H138.875L144.5 36.5625C147.25 34.0625 150.354 32.1458 153.812 30.8125C157.312 29.4375 160.958 28.75 164.75 28.75C168.833 28.75 172.688 29.5417 176.312 31.125C179.938 32.6667 183.104 34.8125 185.812 37.5625C188.521 40.2708 190.646 43.4583 192.188 47.125C193.771 50.75 194.562 54.625 194.562 58.75V97H177.5V58.75C177.5 57 177.167 55.3542 176.5 53.8125C175.833 52.2292 174.917 50.8542 173.75 49.6875C172.583 48.5208 171.229 47.6042 169.688 46.9375C168.146 46.2708 166.5 45.9375 164.75 45.9375C162.958 45.9375 161.271 46.2708 159.688 46.9375C158.104 47.6042 156.729 48.5208 155.562 49.6875C154.396 50.8542 153.479 52.2292 152.812 53.8125C152.146 55.3542 151.812 57 151.812 58.75V97ZM271.438 97H267.312L260.688 87.8125C259.062 89.2708 257.333 90.6458 255.5 91.9375C253.708 93.1875 251.812 94.2917 249.812 95.25C247.812 96.1667 245.75 96.8958 243.625 97.4375C241.542 97.9792 239.417 98.25 237.25 98.25C232.542 98.25 228.104 97.375 223.938 95.625C219.812 93.8333 216.188 91.375 213.062 88.25C209.979 85.0833 207.542 81.3542 205.75 77.0625C203.958 72.7292 203.062 68.0208 203.062 62.9375C203.062 57.8958 203.958 53.2083 205.75 48.875C207.542 44.5417 209.979 40.7917 213.062 37.625C216.188 34.4583 219.812 31.9792 223.938 30.1875C228.104 28.3958 232.542 27.5 237.25 27.5C238.75 27.5 240.292 27.625 241.875 27.875C243.5 28.125 245.062 28.5417 246.562 29.125C248.104 29.6667 249.542 30.3958 250.875 31.3125C252.208 32.2292 253.333 33.3542 254.25 34.6875V3.4375H271.438V97ZM254.25 62.9375C254.25 60.6042 253.792 58.3542 252.875 56.1875C252 53.9792 250.792 52.0417 249.25 50.375C247.708 48.6667 245.896 47.3125 243.812 46.3125C241.771 45.2708 239.583 44.75 237.25 44.75C234.917 44.75 232.708 45.1667 230.625 46C228.583 46.8333 226.792 48.0417 225.25 49.625C223.75 51.1667 222.562 53.0625 221.688 55.3125C220.812 57.5625 220.375 60.1042 220.375 62.9375C220.375 65.3958 220.812 67.7292 221.688 69.9375C222.562 72.1458 223.75 74.0833 225.25 75.75C226.792 77.4167 228.583 78.7292 230.625 79.6875C232.708 80.6458 234.917 81.125 237.25 81.125C239.583 81.125 241.771 80.625 243.812 79.625C245.896 78.5833 247.708 77.2292 249.25 75.5625C250.792 73.8542 252 71.9167 252.875 69.75C253.792 67.5417 254.25 65.2708 254.25 62.9375ZM637.5 90.625C637.5 92.125 637.229 93.5417 636.688 94.875C636.146 96.1667 635.396 97.2917 634.438 98.25C633.479 99.2083 632.354 99.9583 631.062 100.5C629.771 101.083 628.375 101.375 626.875 101.375C625.417 101.375 624.021 101.083 622.688 100.5C621.396 99.9583 620.25 99.2083 619.25 98.25C618.292 97.2917 617.521 96.1667 616.938 94.875C616.396 93.5417 616.125 92.125 616.125 90.625C616.125 89.1667 616.396 87.7917 616.938 86.5C617.521 85.2083 618.292 84.0833 619.25 83.125C620.25 82.1667 621.396 81.4167 622.688 80.875C624.021 80.2917 625.417 80 626.875 80C628.375 80 629.771 80.2917 631.062 80.875C632.354 81.4167 633.479 82.1667 634.438 83.125C635.396 84.0833 636.146 85.2083 636.688 86.5C637.229 87.7917 637.5 89.1667 637.5 90.625Z" fill="#FFFF00"/>
<path d="M281.062 34.25C281.062 30.5417 281.771 27.0625 283.188 23.8125C284.604 20.5625 286.521 17.7292 288.938 15.3125C291.396 12.8542 294.25 10.9167 297.5 9.5C300.75 8.08333 304.229 7.375 307.938 7.375H349.062V25.3125H307.938C306.688 25.3125 305.521 25.5417 304.438 26C303.354 26.4583 302.396 27.1042 301.562 27.9375C300.771 28.7292 300.146 29.6667 299.688 30.75C299.229 31.8333 299 33 299 34.25C299 35.5 299.229 36.6875 299.688 37.8125C300.146 38.8958 300.771 39.8542 301.562 40.6875C302.396 41.4792 303.354 42.1042 304.438 42.5625C305.521 43.0208 306.688 43.25 307.938 43.25H325.875C329.583 43.25 333.062 43.9583 336.312 45.375C339.604 46.75 342.458 48.6667 344.875 51.125C347.333 53.5417 349.25 56.3958 350.625 59.6875C352.042 62.9375 352.75 66.4167 352.75 70.125C352.75 73.8333 352.042 77.3125 350.625 80.5625C349.25 83.8125 347.333 86.6667 344.875 89.125C342.458 91.5417 339.604 93.4583 336.312 94.875C333.062 96.2917 329.583 97 325.875 97H286.062V79.0625H325.875C327.125 79.0625 328.292 78.8333 329.375 78.375C330.458 77.9167 331.396 77.2917 332.188 76.5C333.021 75.6667 333.667 74.7083 334.125 73.625C334.583 72.5417 334.812 71.375 334.812 70.125C334.812 68.875 334.583 67.7083 334.125 66.625C333.667 65.5417 333.021 64.6042 332.188 63.8125C331.396 62.9792 330.458 62.3333 329.375 61.875C328.292 61.4167 327.125 61.1875 325.875 61.1875H307.938C304.229 61.1875 300.75 60.4792 297.5 59.0625C294.25 57.6458 291.396 55.7292 288.938 53.3125C286.521 50.8542 284.604 48 283.188 44.75C281.771 41.4583 281.062 37.9583 281.062 34.25ZM395.188 97C391.062 97 387.188 96.2292 383.562 94.6875C379.938 93.1042 376.75 90.9583 374 88.25C371.292 85.5 369.146 82.3125 367.562 78.6875C366.021 75.0625 365.25 71.1875 365.25 67.0625V47.1875H356.938V30.1875H365.25V3.4375H382.25V30.1875H408.125V47.1875H382.25V67.0625C382.25 68.8542 382.583 70.5417 383.25 72.125C383.917 73.6667 384.833 75.0208 386 76.1875C387.167 77.3542 388.542 78.2917 390.125 79C391.708 79.6667 393.396 80 395.188 80H408.125V97H395.188ZM482.438 62.9375C482.438 67.9375 481.542 72.6042 479.75 76.9375C477.958 81.2292 475.521 84.9583 472.438 88.125C469.354 91.25 465.729 93.7292 461.562 95.5625C457.438 97.3542 453 98.25 448.25 98.25C443.542 98.25 439.104 97.3542 434.938 95.5625C430.812 93.7292 427.188 91.25 424.062 88.125C420.979 84.9583 418.542 81.2292 416.75 76.9375C414.958 72.6042 414.062 67.9375 414.062 62.9375C414.062 57.8542 414.958 53.1458 416.75 48.8125C418.542 44.4792 420.979 40.75 424.062 37.625C427.188 34.4583 430.812 31.9792 434.938 30.1875C439.104 28.3958 443.542 27.5 448.25 27.5C453 27.5 457.438 28.3542 461.562 30.0625C465.729 31.7292 469.354 34.125 472.438 37.25C475.521 40.3333 477.958 44.0625 479.75 48.4375C481.542 52.7708 482.438 57.6042 482.438 62.9375ZM465.25 62.9375C465.25 60.1875 464.792 57.7083 463.875 55.5C463 53.25 461.792 51.3333 460.25 49.75C458.708 48.125 456.896 46.8958 454.812 46.0625C452.771 45.1875 450.583 44.75 448.25 44.75C445.917 44.75 443.708 45.1875 441.625 46.0625C439.583 46.8958 437.792 48.125 436.25 49.75C434.75 51.3333 433.562 53.25 432.688 55.5C431.812 57.7083 431.375 60.1875 431.375 62.9375C431.375 65.5208 431.812 67.9167 432.688 70.125C433.562 72.3333 434.75 74.25 436.25 75.875C437.792 77.5 439.583 78.7917 441.625 79.75C443.708 80.6667 445.917 81.125 448.25 81.125C450.583 81.125 452.771 80.6875 454.812 79.8125C456.896 78.9375 458.708 77.7083 460.25 76.125C461.792 74.5417 463 72.625 463.875 70.375C464.792 68.125 465.25 65.6458 465.25 62.9375ZM508.938 97H491.875V30.0625H496L501.625 38C504.375 35.5 507.5 33.5833 511 32.25C514.5 30.875 518.125 30.1875 521.875 30.1875H536.938V47.1875H521.875C520.083 47.1875 518.396 47.5208 516.812 48.1875C515.229 48.8542 513.854 49.7708 512.688 50.9375C511.521 52.1042 510.604 53.4792 509.938 55.0625C509.271 56.6458 508.938 58.3333 508.938 60.125V97ZM560.5 122.5V105.312L570 105.438C571.667 105.438 573.271 105.167 574.812 104.625C576.354 104.083 577.771 103.333 579.062 102.375C580.396 101.417 581.562 100.271 582.562 98.9375C583.562 97.6458 584.375 96.2292 585 94.6875C583.125 95.4792 581.208 96.2708 579.25 97.0625C577.333 97.8542 575.396 98.25 573.438 98.25C569.312 98.25 565.438 97.5208 561.812 96.0625C558.188 94.6042 555 92.5417 552.25 89.875C549.542 87.1667 547.396 83.8958 545.812 80.0625C544.271 76.1875 543.5 71.8542 543.5 67.0625V30.0625H560.5V67.0625C560.5 69.4375 560.833 71.5208 561.5 73.3125C562.208 75.0625 563.146 76.5417 564.312 77.75C565.479 78.9167 566.833 79.7917 568.375 80.375C569.958 80.9583 571.646 81.25 573.438 81.25C575.188 81.25 576.833 80.8542 578.375 80.0625C579.958 79.2292 581.333 78.1458 582.5 76.8125C583.667 75.4792 584.583 73.9792 585.25 72.3125C585.917 70.6042 586.25 68.8542 586.25 67.0625V30.0625H603.438V88.5625C603.396 93.2708 602.479 97.6875 600.688 101.812C598.896 105.938 596.438 109.542 593.312 112.625C590.229 115.708 586.625 118.146 582.5 119.938C578.375 121.729 573.958 122.625 569.25 122.625L560.5 122.5Z" fill="#FF577F"/>
</svg>
